<?xml version="1.0" encoding="UTF-8"?>
<!DOCTYPE svg PUBLIC "-//W3C//DTD SVG 1.0//EN" "http://www.w3.org/TR/2001/REC-SVG-20010904/DTD/svg10.dtd">
<!-- Creator: CorelDRAW 2020 (64-Bit) -->
<svg xmlns="http://www.w3.org/2000/svg" xml:space="preserve" width="400px" height="500px" version="1.0" style="shape-rendering:geometricPrecision; text-rendering:geometricPrecision; image-rendering:optimizeQuality; fill-rule:evenodd; clip-rule:evenodd"
viewBox="0 0 400 500"
 xmlns:xlink="http://www.w3.org/1999/xlink"
 xmlns:xodm="http://www.corel.com/coreldraw/odm/2003">
 <defs>
  <style type="text/css">
   <![CDATA[
    .fil5 {fill:#4D4D4D}
    .fil4 {fill:#666666}
    .fil3 {fill:#66E166}
    .fil9 {fill:gray}
    .fil7 {fill:#85EB99}
    .fil8 {fill:#999999}
    .fil6 {fill:#99EB99}
    .fil0 {fill:#B3B3B3}
    .fil1 {fill:#CCCCCC}
    .fil2 {fill:#E6E6E6}
    .fil10 {fill:red}
    .fil11 {fill:#66E166;fill-rule:nonzero}
   ]]>
  </style>
 </defs>
 <g id="Layer_x0020_1">
  <metadata id="CorelCorpID_0Corel-Layer"/>
  <path class="fil0" d="M55.39 43.11l289.22 0c4.72,0 8.59,3.86 8.59,8.59l0 396.6c0,4.74 -3.87,8.59 -8.59,8.59l-289.22 0c-4.73,0 -8.6,-3.85 -8.6,-8.59l0 -396.6c0,-4.73 3.87,-8.59 8.6,-8.59zm5.12 7.26l278.98 0c3.54,0 6.44,2.9 6.44,6.45l0 386.37c0,3.54 -2.9,6.44 -6.44,6.44l-278.98 0c-3.55,0 -6.44,-2.9 -6.44,-6.44l0 -386.37c0,-3.55 2.89,-6.45 6.44,-6.45z"/>
  <path class="fil0" d="M65.4 77.14c7.71,0 15.51,-7.79 15.51,-15.46l237.58 0c8.86,0 16.11,7.25 16.11,16.11l0 235.61c0,8.86 -7.25,16.11 -16.11,16.11l-236.98 0c-8.86,0 -16.11,-7.25 -16.11,-16.11l0 -236.26 0 0zm7.71 7.08c7.8,0 14.88,-7.08 14.88,-14.87l229.9 0c4.95,0 9,4.05 9,9l0 234.49c0,4.95 -4.05,8.99 -9,8.99l-235.78 0c-4.95,0 -9,-4.04 -9,-8.99l0 -228.62 0 0z"/>
  <path class="fil1" d="M64.45 56.1l271.1 0c2.56,0 4.66,2.1 4.66,4.65l0 269.68c0,2.56 -2.1,4.65 -4.66,4.65l-271.1 0c-2.56,0 -4.66,-2.09 -4.66,-4.65l0 -269.68c0,-2.55 2.1,-4.65 4.66,-4.65zm4.11 15.34c3.63,0 6.58,-2.94 6.58,-6.57 0,-3.63 -2.95,-6.57 -6.58,-6.57 -3.63,0 -6.57,2.94 -6.57,6.57 0,3.63 2.94,6.57 6.57,6.57zm-3.16 5.7c7.71,0 15.51,-7.79 15.51,-15.46l237.58 0c8.86,0 16.11,7.25 16.11,16.11l0 235.61c0,8.86 -7.25,16.11 -16.11,16.11l-236.98 0c-8.86,0 -16.11,-7.25 -16.11,-16.11l0 -236.26 0 0z"/>
  <path class="fil2" d="M73.11 84.22c7.8,0 14.88,-7.08 14.88,-14.87l229.9 0c4.95,0 9,4.05 9,9l0 234.49c0,4.95 -4.05,8.99 -9,8.99l-235.78 0c-4.95,0 -9,-4.04 -9,-8.99l0 -228.62 0 0zm27.78 -5.14l198.22 0c9.82,0 17.86,8.03 17.86,17.86l0 198.74c0,9.82 -8.04,17.86 -17.86,17.86l-198.22 0c-9.83,0 -17.86,-8.04 -17.86,-17.86l0 -198.74c0,-9.83 8.03,-17.86 17.86,-17.86z"/>
  <path class="fil2" d="M60.51 50.37l278.98 0c3.54,0 6.44,2.9 6.44,6.45l0 386.37c0,3.54 -2.9,6.44 -6.44,6.44l-278.98 0c-3.55,0 -6.44,-2.9 -6.44,-6.44l0 -386.37c0,-3.55 2.89,-6.45 6.44,-6.45zm95.54 392.06c-1.24,0 -2.24,-1 -2.24,-2.23 0,-0.62 0.25,-1.18 0.66,-1.58l15.09 -15.09c0.52,-0.52 1.23,-0.84 2.03,-0.84l56.82 0c0.79,0 1.51,0.32 2.03,0.84l15.08 15.09c0.41,0.4 0.66,0.96 0.66,1.58 0,1.23 -1.01,2.23 -2.24,2.23l-87.89 0 0 0zm0.3 -100.16c-3.43,0 -6.54,1.38 -8.78,3.63 -2.25,2.25 -5.35,3.64 -8.79,3.64l-64.96 0c-4.05,0 -7.34,3.28 -7.34,7.34l0.01 72.5c0,4.05 3.28,7.34 7.33,7.34l69.03 0c2.26,0 4.31,-0.92 5.81,-2.4l18.16 -18.17c0.55,-0.55 1.31,-0.89 2.15,-0.89l62.06 0c0.84,0 1.6,0.34 2.15,0.89l18.16 18.17c1.48,1.48 3.54,2.4 5.81,2.4l69.03 0c4.05,0 7.33,-3.29 7.33,-7.34l0 -72.5c0,-4.06 -3.28,-7.34 -7.33,-7.34l-64.97 0c-3.44,0 -6.53,-1.39 -8.79,-3.64 -2.25,-2.25 -5.35,-3.63 -8.78,-3.63l-87.28 0 -0.01 0zm-91.9 -286.17l271.1 0c2.56,0 4.65,2.1 4.65,4.65l0 269.68c0,2.56 -2.09,4.65 -4.65,4.65l-271.1 0c-2.56,0 -4.66,-2.09 -4.66,-4.65l0 -269.68c0,-2.55 2.1,-4.65 4.66,-4.65z"/>
  <path class="fil3" d="M68.56 71.44c3.63,0 6.58,-2.94 6.58,-6.57 0,-3.63 -2.95,-6.57 -6.58,-6.57 -3.63,0 -6.57,2.94 -6.57,6.57 0,3.63 2.94,6.57 6.57,6.57zm0 -0.84c3.17,0 5.73,-2.57 5.73,-5.73 0,-3.16 -2.56,-5.73 -5.73,-5.73 -3.16,0 -5.72,2.57 -5.72,5.73 0,3.16 2.56,5.73 5.72,5.73z"/>
  <path class="fil4" d="M100.89 79.08l198.22 0c9.82,0 17.86,8.03 17.86,17.86l0 198.74c0,9.82 -8.04,17.86 -17.86,17.86l-198.22 0c-9.83,0 -17.86,-8.04 -17.86,-17.86l0 -198.74c0,-9.83 8.03,-17.86 17.86,-17.86zm0.2 2.78l197.82 0c8.41,0 15.29,6.87 15.29,15.28l0 198.33c0,8.41 -6.88,15.29 -15.29,15.29l-197.82 0c-8.41,0 -15.29,-6.88 -15.29,-15.29l0 -198.33c0,-8.41 6.88,-15.28 15.29,-15.28z"/>
  <path class="fil5" d="M156.05 442.43c-1.24,0 -2.24,-1 -2.24,-2.23 0,-0.62 0.25,-1.18 0.66,-1.58l15.09 -15.09c0.52,-0.52 1.23,-0.84 2.03,-0.84l56.82 0c0.79,0 1.51,0.32 2.03,0.84l15.08 15.09c0.41,0.4 0.66,0.96 0.66,1.58 0,1.23 -1.01,2.23 -2.24,2.23l-87.89 0 0 0zm3.17 -2.06c-0.82,0 -1.48,-0.66 -1.48,-1.48 0,-0.4 0.17,-0.77 0.43,-1.04l12.47 -12.47c0.41,-0.4 0.97,-0.66 1.58,-0.66l55.55 0c0.62,0 1.18,0.26 1.59,0.66l12.46 12.47c0.27,0.27 0.44,0.64 0.44,1.04 0,0.82 -0.67,1.48 -1.48,1.48l-81.56 0z"/>
  <path class="fil6" d="M165.43 437.67c-0.82,0 -1.48,-0.66 -1.48,-1.48 0,-0.4 0.16,-0.77 0.43,-1.04l6.83 -6.83c0.55,-0.55 1.32,-0.9 2.17,-0.9l53.24 0c0.85,0 1.61,0.35 2.17,0.9l6.83 6.83c0.26,0.27 0.43,0.64 0.43,1.04 0,0.82 -0.66,1.48 -1.48,1.48l-69.14 0 0 0z"/>
  <path class="fil3" d="M159.22 440.37c-0.82,0 -1.48,-0.66 -1.48,-1.48 0,-0.4 0.17,-0.77 0.43,-1.04l12.47 -12.47c0.41,-0.4 0.97,-0.66 1.58,-0.66l55.55 0c0.62,0 1.18,0.26 1.59,0.66l12.46 12.47c0.27,0.27 0.44,0.64 0.44,1.04 0,0.82 -0.67,1.48 -1.48,1.48l-81.56 0zm6.21 -2.7c-0.82,0 -1.48,-0.66 -1.48,-1.48 0,-0.4 0.16,-0.77 0.43,-1.04l6.83 -6.83c0.55,-0.55 1.32,-0.9 2.17,-0.9l53.24 0c0.85,0 1.61,0.35 2.17,0.9l6.83 6.83c0.26,0.27 0.43,0.64 0.43,1.04 0,0.82 -0.66,1.48 -1.48,1.48l-69.14 0 0 0z"/>
  <path class="fil5" d="M99.95 310.72c-7.88,-0.59 -14.15,-7.22 -14.15,-15.25l0 -198.33c0,-8.02 6.27,-14.65 14.15,-15.24l0 228.82z"/>
  <path class="fil5" d="M300.05 81.9c7.88,0.59 14.15,7.22 14.15,15.24l0 198.33c0,8.03 -6.27,14.66 -14.15,15.25l0 -228.82z"/>
  <path class="fil5" d="M231.14 81.86l6.62 0 0 228.9 -6.62 0 0 -228.9z"/>
  <path class="fil5" d="M162.24 81.86l6.62 0 0 228.9 -6.62 0 0 -228.9z"/>
  <path class="fil7" d="M162.24 81.86l0 228.9 -61.15 0c-0.39,0 -0.76,-0.01 -1.14,-0.04l0 -228.82c0.38,-0.03 0.75,-0.04 1.14,-0.04l61.15 0 0 0z"/>
  <path class="fil7" d="M231.14 81.86l0 228.9 -62.28 0 0 -228.9 62.28 0z"/>
  <path class="fil7" d="M300.05 81.9l0 228.82c-0.38,0.03 -0.76,0.04 -1.14,0.04l-61.15 0 0 -228.9 61.15 0c0.38,0 0.76,0.01 1.14,0.04l0 0z"/>
  <path class="fil1" d="M156.35 342.27c-3.43,0 -6.54,1.38 -8.78,3.63 -2.25,2.25 -5.35,3.65 -8.79,3.65l-64.96 0c-4.05,0 -7.34,3.28 -7.34,7.33l0.01 72.5c0,4.05 3.28,7.34 7.33,7.34l69.03 0c2.26,0 4.31,-0.92 5.81,-2.4l18.16 -18.17c0.55,-0.55 1.31,-0.89 2.15,-0.89l62.06 0c0.84,0 1.6,0.34 2.15,0.89l18.16 18.17c1.48,1.48 3.54,2.4 5.81,2.4l69.03 0c4.05,0 7.33,-3.29 7.33,-7.34l0 -72.5c0,-4.05 -3.28,-7.33 -7.33,-7.33l-64.97 0c-3.44,0 -6.53,-1.4 -8.79,-3.65 -2.25,-2.25 -5.35,-3.63 -8.78,-3.63l-87.28 0 -0.01 0zm35.82 9.64l15.66 0c3.81,0 6.93,3.13 6.93,6.95l0 0c0,3.81 -3.12,6.93 -6.93,6.93l-15.66 0c-3.82,0 -6.94,-3.12 -6.94,-6.93l0 0c0,-3.82 3.12,-6.95 6.94,-6.95zm0 2.42c2.52,0 4.56,2.03 4.56,4.53 0,2.5 -2.04,4.53 -4.56,4.53 -2.52,0 -4.57,-2.03 -4.57,-4.53 0,-2.5 2.05,-4.53 4.57,-4.53zm-24.05 55.25c-2.26,0 -4.31,0.91 -5.75,2.35l-16.92 16.91c-1.46,1.46 -3.51,2.38 -5.77,2.38l-63.72 0c-1.91,-0.01 -3.45,-1.55 -3.45,-3.46l0 -69.14c0,-1.91 1.54,-3.47 3.45,-3.47l88.51 0c3.81,0 7.27,1.56 9.77,4.06l6.33 6.33c1.45,1.46 3.47,2.36 5.69,2.36l27.48 0c2.22,0 4.23,-0.9 5.69,-2.36l6.33 -6.33c2.5,-2.5 5.95,-4.06 9.77,-4.06l88.5 0c1.91,0 3.46,1.56 3.46,3.47l0 69.14c0,1.91 -1.55,3.45 -3.46,3.46l-63.71 0c-2.27,0 -4.33,-0.92 -5.78,-2.38l-16.92 -16.91c-1.43,-1.44 -3.48,-2.35 -5.74,-2.35l-63.76 0 0 0z"/>
  <path class="fil0" d="M185.45 373.97l29.1 0c1.11,0 2.01,0.91 2.01,2.02l0 25.82c0,1.11 -0.9,2.01 -2.01,2.01l-29.1 0c-1.11,0 -2.02,-0.9 -2.02,-2.01l0 -25.82c0,-1.11 0.91,-2.02 2.02,-2.02zm1.61 1.89l25.87 0c0.97,0 1.76,0.79 1.76,1.76l0 22.56c0,0.97 -0.79,1.76 -1.76,1.76l-25.87 0c-0.97,0 -1.76,-0.79 -1.76,-1.76l0 -22.56c0,-0.97 0.79,-1.76 1.76,-1.76z"/>
  <ellipse class="fil7" cx="192.17" cy="358.86" rx="4.56" ry="4.53"/>
  <path class="fil3" d="M187.29 375.86l25.41 0c1.1,0 1.99,0.52 1.99,1.16l0 23.76c0,0.64 -0.89,1.16 -1.99,1.16l-25.41 0c-1.1,0 -1.99,-0.52 -1.99,-1.16l0 -23.76c0,-0.64 0.89,-1.16 1.99,-1.16z"/>
  <path class="fil8" d="M173.19 361.62c1.22,0.66 2.33,1.5 3.3,2.47l1.89 1.89c2.6,2.61 6.21,4.22 10.2,4.22 7.61,0 15.23,0 22.84,0 3.99,0 7.59,-1.61 10.2,-4.22l1.89 -1.89c0.97,-0.97 2.08,-1.81 3.3,-2.47l0 46.32 -53.62 0 0 -46.32 0 0zm12.26 12.35l29.1 0c1.11,0 2.01,0.91 2.01,2.02l0 25.82c0,1.11 -0.9,2.01 -2.01,2.01l-29.1 0c-1.11,0 -2.02,-0.9 -2.02,-2.01l0 -25.82c0,-1.11 0.91,-2.02 2.02,-2.02z"/>
  <path class="fil9" d="M173.19 407.94l-5.43 -1.88 0 -46.12c1.95,0.2 3.79,0.78 5.43,1.68l0 46.32z"/>
  <path class="fil9" d="M226.81 361.62l0 46.32 5.42 -1.88 0 -46.12c-1.95,0.2 -3.78,0.78 -5.42,1.68z"/>
  <path class="fil0" d="M168.12 409.58c-2.26,0 -4.31,0.91 -5.75,2.35l-16.92 16.91c-1.46,1.46 -3.51,2.38 -5.77,2.38l-63.72 0c-1.91,-0.01 -3.45,-1.55 -3.45,-3.46l0 -69.14c0,-1.91 1.54,-3.47 3.45,-3.47l88.51 0c3.81,0 7.27,1.56 9.77,4.06l6.33 6.33c1.45,1.46 3.47,2.36 5.69,2.36l27.48 0c2.22,0 4.23,-0.9 5.69,-2.36l6.33 -6.33c2.5,-2.5 5.95,-4.06 9.77,-4.06l88.5 0c1.91,0 3.46,1.56 3.46,3.47l0 69.14c0,1.91 -1.55,3.45 -3.46,3.46l-63.71 0c-2.27,0 -4.33,-0.92 -5.78,-2.38l-16.92 -16.91c-1.43,-1.44 -3.48,-2.35 -5.74,-2.35l-63.76 0 0 0zm64.11 -3.52l-5.42 1.88 -53.62 0 -5.43 -1.88 -0.61 0c-2.22,0 -4.23,0.9 -5.68,2.36l-18.31 18.29c-0.65,0.65 -1.54,1.05 -2.53,1.05l-61.27 0c-1.88,0 -3.4,-1.52 -3.4,-3.4l0 -62.34c0,-1.88 1.52,-3.4 3.4,-3.4l83.95 0c1.64,0 3.17,0.49 4.45,1.32 1.95,0.2 3.79,0.78 5.43,1.68 1.22,0.66 2.33,1.5 3.3,2.47l1.89 1.89c2.6,2.61 6.21,4.22 10.2,4.22 7.61,0 15.23,0 22.84,0 3.99,0 7.59,-1.61 10.2,-4.22l1.89 -1.89c0.97,-0.97 2.08,-1.81 3.3,-2.47 1.64,-0.9 3.47,-1.48 5.42,-1.68 1.29,-0.83 2.82,-1.32 4.46,-1.32l83.95 0c1.87,0 3.4,1.52 3.4,3.4l0 62.34c0,1.88 -1.53,3.4 -3.4,3.4l-61.28 0c-0.99,0 -1.89,-0.4 -2.53,-1.05l-18.3 -18.29c-1.46,-1.46 -3.47,-2.36 -5.69,-2.36l-0.61 0 0 0z"/>
  <path class="fil5" d="M232.23 359.94c1.29,-0.83 2.82,-1.32 4.46,-1.32l83.95 0c1.87,0 3.4,1.52 3.4,3.4l0 62.34c0,1.88 -1.53,3.4 -3.4,3.4l-61.28 0c-0.99,0 -1.89,-0.4 -2.53,-1.05l-18.3 -18.29c-1.46,-1.46 -3.47,-2.36 -5.69,-2.36l-0.61 0 0 -46.12zm25.89 62.68l-20.85 -20.85c-0.82,-0.81 -1.32,-1.93 -1.32,-3.16l0 -33.52c0,-1.47 1.21,-2.68 2.69,-2.68l79.22 0c1.48,0 2.69,1.21 2.69,2.68l0 56.15c0,1.48 -1.21,2.69 -2.69,2.69l-56.59 0c-1.24,0 -2.35,-0.5 -3.16,-1.31l0.01 0z"/>
  <path class="fil5" d="M167.76 406.06l-0.61 0c-2.22,0 -4.23,0.9 -5.68,2.36l-18.31 18.29c-0.65,0.65 -1.54,1.05 -2.53,1.05l-61.27 0c-1.88,0 -3.4,-1.52 -3.4,-3.4l0 -62.34c0,-1.88 1.52,-3.4 3.4,-3.4l83.95 0c1.64,0 3.17,0.49 4.45,1.32l0 46.12zm-25.88 16.56l20.85 -20.85c0.81,-0.81 1.31,-1.93 1.31,-3.16l0 -33.52c0,-1.47 -1.2,-2.68 -2.68,-2.68l-79.23 0c-1.47,0 -2.68,1.21 -2.68,2.68l0 56.15c0,1.48 1.21,2.69 2.68,2.69l56.59 0c1.23,0 2.35,-0.5 3.16,-1.31z"/>
  <path class="fil7" d="M140.19 415.55l15.9 -15.89c1.39,-1.42 2.25,-3.37 2.25,-5.51l0 -17.19c0,-4.33 -3.55,-7.87 -7.89,-7.87l-56.56 0c-4.33,0 -7.87,3.54 -7.87,7.87l0 33.02c0,4.33 3.54,7.88 7.87,7.88l40.73 0c2.18,0 4.14,-0.88 5.57,-2.31l0 0z"/>
  <path class="fil6" d="M259.81 415.55l-15.9 -15.89c-1.39,-1.42 -2.25,-3.37 -2.25,-5.51l0 -17.19c0,-4.33 3.54,-7.87 7.87,-7.87l56.58 0c4.33,0 7.87,3.54 7.87,7.87l0 33.02c0,4.33 -3.54,7.88 -7.87,7.88l-40.73 0c-2.18,0 -4.15,-0.88 -5.57,-2.31l0 0z"/>
  <path class="fil3" d="M141.88 422.62l20.85 -20.85c0.81,-0.81 1.31,-1.93 1.31,-3.16l0 -33.52c0,-1.47 -1.2,-2.68 -2.68,-2.68l-79.23 0c-1.47,0 -2.68,1.21 -2.68,2.68l0 56.15c0,1.48 1.21,2.69 2.68,2.69l56.59 0c1.23,0 2.35,-0.5 3.16,-1.31zm-1.69 -7.07l15.9 -15.89c1.39,-1.42 2.25,-3.37 2.25,-5.51l0 -17.19c0,-4.33 -3.55,-7.87 -7.89,-7.87l-56.56 0c-4.33,0 -7.87,3.54 -7.87,7.87l0 33.02c0,4.33 3.54,7.88 7.87,7.88l40.73 0c2.18,0 4.14,-0.88 5.57,-2.31l0 0z"/>
  <path class="fil3" d="M258.12 422.62l-20.85 -20.85c-0.82,-0.81 -1.32,-1.93 -1.32,-3.16l0 -33.52c0,-1.47 1.21,-2.68 2.69,-2.68l79.22 0c1.48,0 2.69,1.21 2.69,2.68l0 56.15c0,1.48 -1.21,2.69 -2.69,2.69l-56.59 0c-1.24,0 -2.35,-0.5 -3.16,-1.31l0.01 0zm1.69 -7.07l-15.9 -15.89c-1.39,-1.42 -2.25,-3.37 -2.25,-5.51l0 -17.19c0,-4.33 3.54,-7.87 7.87,-7.87l56.58 0c4.33,0 7.87,3.54 7.87,7.87l0 33.02c0,4.33 -3.54,7.88 -7.87,7.88l-40.73 0c-2.18,0 -4.15,-0.88 -5.57,-2.31l0 0z"/>
  <path class="fil3" d="M192.17 351.91l15.66 0c3.81,0 6.93,3.13 6.93,6.95l0 0c0,3.81 -3.12,6.93 -6.93,6.93l-15.66 0c-3.82,0 -6.94,-3.12 -6.94,-6.93l0 0c0,-3.82 3.12,-6.95 6.94,-6.95zm0 2.42c2.52,0 4.56,2.03 4.56,4.53 0,2.5 -2.04,4.53 -4.56,4.53 -2.52,0 -4.57,-2.03 -4.57,-4.53 0,-2.5 2.05,-4.53 4.57,-4.53z"/>
  <circle class="fil7" cx="68.56" cy="64.87" r="5.73"/>
  <path class="fil10" d="M200 428.98c1.98,0 3.58,1.61 3.58,3.58 0,1.61 -1.05,2.96 -2.51,3.42l0 38.82 -2.14 0.02 0 -38.84c-1.46,-0.46 -2.51,-1.81 -2.51,-3.42 0,-1.97 1.6,-3.58 3.58,-3.58z"/>
  <path class="fil10" d="M124.7 390.94c1.4,1.4 1.4,3.67 0,5.07 -1.13,1.13 -2.83,1.34 -4.18,0.64l-36.71 36.71 0 41.44 -2.15 0 0 -42.33 37.34 -37.34c-0.71,-1.35 -0.49,-3.05 0.64,-4.19 1.4,-1.39 3.67,-1.39 5.06,0l0 0z"/>
  <path class="fil10" d="M200 392.47c1.97,0 3.57,-1.6 3.57,-3.57 0,-1.97 -1.6,-3.57 -3.57,-3.57 -0.6,0 -1.16,0.14 -1.65,0.4l-48.13 -48.13 -77.11 0 0 2.15 76.22 0 47.5 47.5c-0.26,0.49 -0.4,1.05 -0.4,1.65 0,1.97 1.6,3.57 3.57,3.57z"/>
  <path class="fil10" d="M207.83 362.43c-1.97,0 -3.57,-1.6 -3.57,-3.57 0,-1.98 1.6,-3.58 3.57,-3.58 0.59,0 1.16,0.15 1.65,0.4l24.46 -24.46 92.95 0 0 2.15 -92.06 0 -23.83 23.84c0.26,0.49 0.4,1.05 0.4,1.65 0,1.97 -1.6,3.57 -3.57,3.57z"/>
  <path class="fil10" d="M68.56 68.45c1.98,0 3.58,-1.6 3.58,-3.58 0,-1.6 -1.05,-2.96 -2.5,-3.41l0 -36.26 -2.15 0 0 36.26c-1.45,0.45 -2.51,1.81 -2.51,3.41 0,1.98 1.61,3.58 3.58,3.58l0 0z"/>
  <path class="fil3" d="M101.6 159.34l196.8 0c5.39,0 9.8,4.41 9.8,9.8l0 54.76c0,5.39 -4.41,9.8 -9.8,9.8l-196.8 0c-5.39,0 -9.8,-4.41 -9.8,-9.8l0 -54.76c0,-5.39 4.41,-9.8 9.8,-9.8zm0.7 3l195.4 0c4.12,0 7.5,3.37 7.5,7.5l0 53.36c0,4.12 -3.38,7.5 -7.5,7.5l-195.4 0c-4.13,0 -7.5,-3.38 -7.5,-7.5l0 -53.36c0,-4.13 3.37,-7.5 7.5,-7.5z"/>
  <path class="fil10" d="M275.29 390.94c-1.39,1.4 -1.39,3.67 0,5.07 1.14,1.13 2.84,1.34 4.19,0.64l36.71 36.71 0 41.44 2.15 0 0 -42.33 -37.34 -37.34c0.7,-1.35 0.49,-3.05 -0.65,-4.19 -1.39,-1.39 -3.66,-1.39 -5.06,0l0 0z"/>
  <path class="fil11" d="M244.39 196.22c0,-10 1.93,-17.88 5.8,-23.64 3.87,-5.76 10.11,-8.64 18.72,-8.64 8.6,0 14.84,2.88 18.71,8.64 3.87,5.76 5.81,13.64 5.81,23.64 0,10.12 -1.94,18.07 -5.81,23.82 -3.87,5.76 -10.11,8.64 -18.71,8.64 -8.61,0 -14.85,-2.88 -18.72,-8.64 -3.87,-5.75 -5.8,-13.7 -5.8,-23.82zm34.38 0c0,-5.87 -0.64,-10.4 -1.92,-13.57 -1.28,-3.17 -3.93,-4.75 -7.94,-4.75 -4.02,0 -6.66,1.58 -7.94,4.75 -1.28,3.17 -1.92,7.7 -1.92,13.57 0,3.96 0.23,7.23 0.69,9.82 0.47,2.59 1.41,4.68 2.84,6.28 1.42,1.6 3.53,2.4 6.33,2.4 2.79,0 4.9,-0.8 6.32,-2.4 1.43,-1.6 2.37,-3.69 2.84,-6.28 0.46,-2.59 0.7,-5.86 0.7,-9.82z"/>
  <path class="fil11" d="M106.57 196.22c0,-10 1.94,-17.88 5.81,-23.64 3.87,-5.76 10.1,-8.64 18.71,-8.64 8.61,0 14.85,2.88 18.72,8.64 3.87,5.76 5.8,13.64 5.8,23.64 0,10.12 -1.93,18.07 -5.8,23.82 -3.87,5.76 -10.11,8.64 -18.72,8.64 -8.61,0 -14.84,-2.88 -18.71,-8.64 -3.87,-5.75 -5.81,-13.7 -5.81,-23.82zm34.38 0c0,-5.87 -0.64,-10.4 -1.92,-13.57 -1.28,-3.17 -3.92,-4.75 -7.94,-4.75 -4.01,0 -6.66,1.58 -7.94,4.75 -1.28,3.17 -1.92,7.7 -1.92,13.57 0,3.96 0.24,7.23 0.7,9.82 0.47,2.59 1.41,4.68 2.84,6.28 1.42,1.6 3.53,2.4 6.32,2.4 2.8,0 4.9,-0.8 6.33,-2.4 1.42,-1.6 2.37,-3.69 2.84,-6.28 0.46,-2.59 0.69,-5.86 0.69,-9.82z"/>
  <path class="fil11" d="M175.48 196.43c0,-10 1.93,-17.88 5.8,-23.64 3.87,-5.76 10.11,-8.64 18.72,-8.64 8.61,0 14.85,2.88 18.71,8.64 3.87,5.76 5.81,13.64 5.81,23.64 0,10.13 -1.94,18.07 -5.81,23.82 -3.86,5.76 -10.1,8.64 -18.71,8.64 -8.61,0 -14.85,-2.88 -18.72,-8.64 -3.87,-5.75 -5.8,-13.69 -5.8,-23.82zm34.38 0c0,-5.87 -0.64,-10.4 -1.92,-13.57 -1.28,-3.17 -3.93,-4.75 -7.94,-4.75 -4.01,0 -6.66,1.58 -7.94,4.75 -1.28,3.17 -1.92,7.7 -1.92,13.57 0,3.96 0.23,7.23 0.7,9.82 0.46,2.59 1.41,4.68 2.83,6.28 1.43,1.6 3.54,2.4 6.33,2.4 2.79,0 4.9,-0.8 6.32,-2.4 1.43,-1.6 2.38,-3.69 2.84,-6.28 0.47,-2.59 0.7,-5.86 0.7,-9.82z"/>
  <path class="fil10" d="M200 199.89c1.98,0 3.58,-1.61 3.58,-3.58 0,-1.6 -1.05,-2.96 -2.51,-3.42l0 -167.69 -2.14 0 0 167.69c-1.46,0.46 -2.51,1.82 -2.51,3.42 0,1.97 1.6,3.58 3.58,3.58z"/>
  <path class="fil10" d="M131.66 228.62c1.98,0 3.58,1.62 3.58,3.59 0,1.61 -1.05,2.96 -2.51,3.41l0 38.82 -2.14 0.02 0 -38.84c-1.46,-0.45 -2.51,-1.8 -2.51,-3.41 0,-1.97 1.6,-3.59 3.58,-3.59z"/>
 </g>
</svg>
