<?xml version="1.0" encoding="UTF-8"?>
<!DOCTYPE svg PUBLIC "-//W3C//DTD SVG 1.0//EN" "http://www.w3.org/TR/2001/REC-SVG-20010904/DTD/svg10.dtd">
<!-- Creator: CorelDRAW 2020 (64-Bit) -->
<svg xmlns="http://www.w3.org/2000/svg" xml:space="preserve" width="400px" height="500px" version="1.0" style="shape-rendering:geometricPrecision; text-rendering:geometricPrecision; image-rendering:optimizeQuality; fill-rule:evenodd; clip-rule:evenodd"
viewBox="0 0 400 500"
 xmlns:xlink="http://www.w3.org/1999/xlink"
 xmlns:xodm="http://www.corel.com/coreldraw/odm/2003">
 <defs>
  <style type="text/css">
   <![CDATA[
    .str0 {stroke:#848688;stroke-width:6.25;stroke-miterlimit:22.9256}
    .fil9 {fill:none}
    .fil2 {fill:#E6E7E8}
    .fil1 {fill:#D2D3D5}
    .fil0 {fill:#BDBFC1}
    .fil10 {fill:#A9ABAE}
    .fil11 {fill:#96989A}
    .fil12 {fill:#848688}
    .fil4 {fill:#606062}
    .fil5 {fill:#4B4B4D}
    .fil6 {fill:#F48688}
    .fil3 {fill:#F1696B}
    .fil7 {fill:#4D4D4D}
    .fil8 {fill:#FF9999}
   ]]>
  </style>
 </defs>
 <g id="Layer_x0020_1">
  <metadata id="CorelCorpID_0Corel-Layer"/>
  <path class="fil0" d="M56.9 40.02l289.2 0c4.72,0 8.59,3.86 8.59,8.59l0 396.57c0,4.73 -3.87,8.59 -8.59,8.59l-289.2 0c-4.72,0 -8.59,-3.86 -8.59,-8.59l0 -396.57c0,-4.73 3.87,-8.59 8.59,-8.59zm5.12 7.26l278.96 0c3.54,0 6.44,2.9 6.44,6.45l0 386.34c0,3.54 -2.9,6.44 -6.44,6.44l-278.96 0c-3.55,0 -6.44,-2.9 -6.44,-6.44l0 -386.34c0,-3.55 2.89,-6.45 6.44,-6.45z"/>
  <path class="fil0" d="M66.91 74.05c7.71,0 15.51,-7.79 15.51,-15.46l237.56 0c8.86,0 16.11,7.25 16.11,16.11l0 235.59c0,8.86 -7.25,16.11 -16.11,16.11l-236.96 0c-8.86,0 -16.11,-7.25 -16.11,-16.11l0 -236.24zm7.71 7.08c7.8,0 14.88,-7.08 14.88,-14.87l229.88 0c4.95,0 9,4.05 9,9l0 234.47c0,4.95 -4.05,8.99 -9,8.99l-235.76 0c-4.95,0 -9,-4.04 -9,-8.99l0 -228.6z"/>
  <path class="fil1" d="M65.96 53.01l271.08 0c2.56,0 4.66,2.1 4.66,4.65l0 269.66c0,2.56 -2.1,4.65 -4.66,4.65l-271.08 0c-2.56,0 -4.66,-2.09 -4.66,-4.65l0 -269.66c0,-2.55 2.1,-4.65 4.66,-4.65zm4.11 15.34c3.63,0 6.58,-2.94 6.58,-6.57 0,-3.63 -2.95,-6.57 -6.58,-6.57 -3.63,0 -6.57,2.94 -6.57,6.57 0,3.63 2.94,6.57 6.57,6.57zm-3.16 5.7c7.71,0 15.51,-7.79 15.51,-15.46l237.56 0c8.86,0 16.11,7.25 16.11,16.11l0 235.59c0,8.86 -7.25,16.11 -16.11,16.11l-236.96 0c-8.86,0 -16.11,-7.25 -16.11,-16.11l0 -236.24z"/>
  <path class="fil2" d="M74.62 81.13c7.8,0 14.88,-7.08 14.88,-14.87l229.88 0c4.95,0 9,4.05 9,9l0 234.47c0,4.95 -4.05,8.99 -9,8.99l-235.76 0c-4.95,0 -9,-4.04 -9,-8.99l0 -228.6zm27.78 -5.14l198.2 0c9.82,0 17.86,8.03 17.86,17.86l0 198.72c0,9.82 -8.04,17.86 -17.86,17.86l-198.2 0c-9.83,0 -17.86,-8.04 -17.86,-17.86l0 -198.72c0,-9.83 8.03,-17.86 17.86,-17.86z"/>
  <path class="fil2" d="M62.02 47.28l278.96 0c3.54,0 6.44,2.9 6.44,6.45l0 386.34c0,3.54 -2.9,6.44 -6.44,6.44l-278.96 0c-3.55,0 -6.44,-2.9 -6.44,-6.44l0 -386.34c0,-3.55 2.89,-6.45 6.44,-6.45zm95.54 392.03c-1.24,0 -2.24,-1 -2.24,-2.23 0,-0.62 0.25,-1.18 0.66,-1.58l15.08 -15.09c0.52,-0.52 1.23,-0.84 2.03,-0.84l56.82 0c0.79,0 1.51,0.32 2.03,0.84l15.08 15.09c0.41,0.4 0.66,0.96 0.66,1.58 0,1.23 -1.01,2.23 -2.24,2.23l-87.88 0zm0.3 -100.15c-3.43,0 -6.54,1.38 -8.78,3.63 -2.25,2.25 -5.35,3.64 -8.79,3.64l-64.96 0c-4.05,0 -7.34,3.28 -7.34,7.33l0.01 72.5c0,4.05 3.28,7.34 7.33,7.34l69.03 0c2.26,0 4.31,-0.92 5.8,-2.4l18.16 -18.17c0.55,-0.55 1.31,-0.89 2.15,-0.89l62.06 0c0.84,0 1.6,0.34 2.15,0.89l18.16 18.17c1.48,1.48 3.54,2.4 5.8,2.4l69.03 0c4.05,0 7.33,-3.29 7.33,-7.34l0 -72.5c0,-4.05 -3.28,-7.33 -7.33,-7.33l-64.97 0c-3.43,0 -6.53,-1.39 -8.78,-3.64 -2.25,-2.25 -5.35,-3.63 -8.78,-3.63l-87.28 0zm-91.9 -286.15l271.08 0c2.56,0 4.65,2.1 4.65,4.65l0 269.66c0,2.56 -2.09,4.65 -4.65,4.65l-271.08 0c-2.56,0 -4.66,-2.09 -4.66,-4.65l0 -269.66c0,-2.55 2.1,-4.65 4.66,-4.65z"/>
  <path class="fil3" d="M70.07 68.35c3.63,0 6.58,-2.94 6.58,-6.57 0,-3.63 -2.95,-6.57 -6.58,-6.57 -3.63,0 -6.57,2.94 -6.57,6.57 0,3.63 2.94,6.57 6.57,6.57zm0 -0.84c3.17,0 5.73,-2.57 5.73,-5.73 0,-3.16 -2.56,-5.73 -5.73,-5.73 -3.16,0 -5.72,2.57 -5.72,5.73 0,3.16 2.56,5.73 5.72,5.73z"/>
  <path class="fil4" d="M102.4 75.99l198.2 0c9.82,0 17.86,8.03 17.86,17.86l0 198.72c0,9.82 -8.04,17.86 -17.86,17.86l-198.2 0c-9.83,0 -17.86,-8.04 -17.86,-17.86l0 -198.72c0,-9.83 8.03,-17.86 17.86,-17.86zm0.2 2.78l197.8 0c8.41,0 15.29,6.87 15.29,15.28l0 198.31c0,8.41 -6.88,15.29 -15.29,15.29l-197.8 0c-8.41,0 -15.29,-6.88 -15.29,-15.29l0 -198.31c0,-8.41 6.88,-15.28 15.29,-15.28z"/>
  <path class="fil5" d="M157.56 439.31c-1.24,0 -2.24,-1 -2.24,-2.23 0,-0.62 0.25,-1.18 0.66,-1.58l15.08 -15.09c0.52,-0.52 1.23,-0.84 2.03,-0.84l56.82 0c0.79,0 1.51,0.32 2.03,0.84l15.08 15.09c0.41,0.4 0.66,0.96 0.66,1.58 0,1.23 -1.01,2.23 -2.24,2.23l-87.88 0zm3.16 -2.06c-0.82,0 -1.48,-0.66 -1.48,-1.48 0,-0.4 0.17,-0.77 0.43,-1.04l12.47 -12.47c0.41,-0.4 0.97,-0.66 1.58,-0.66l55.55 0c0.62,0 1.18,0.26 1.59,0.66l12.46 12.47c0.27,0.27 0.44,0.64 0.44,1.04 0,0.82 -0.67,1.48 -1.48,1.48l-81.56 0z"/>
  <path class="fil6" d="M166.93 434.55c-0.82,0 -1.48,-0.66 -1.48,-1.48 0,-0.4 0.16,-0.77 0.43,-1.04l6.83 -6.83c0.55,-0.55 1.32,-0.9 2.17,-0.9l53.24 0c0.85,0 1.61,0.35 2.17,0.9l6.83 6.83c0.26,0.27 0.43,0.64 0.43,1.04 0,0.82 -0.66,1.48 -1.48,1.48l-69.14 0z"/>
  <path class="fil3" d="M160.72 437.25c-0.82,0 -1.48,-0.66 -1.48,-1.48 0,-0.4 0.17,-0.77 0.43,-1.04l12.47 -12.47c0.41,-0.4 0.97,-0.66 1.58,-0.66l55.55 0c0.62,0 1.18,0.26 1.59,0.66l12.46 12.47c0.27,0.27 0.44,0.64 0.44,1.04 0,0.82 -0.67,1.48 -1.48,1.48l-81.56 0zm6.21 -2.7c-0.82,0 -1.48,-0.66 -1.48,-1.48 0,-0.4 0.16,-0.77 0.43,-1.04l6.83 -6.83c0.55,-0.55 1.32,-0.9 2.17,-0.9l53.24 0c0.85,0 1.61,0.35 2.17,0.9l6.83 6.83c0.26,0.27 0.43,0.64 0.43,1.04 0,0.82 -0.66,1.48 -1.48,1.48l-69.14 0z"/>
  <path class="fil7" d="M101.46 307.61c-7.88,-0.59 -14.15,-7.22 -14.15,-15.25l0 -198.31c0,-8.02 6.27,-14.65 14.15,-15.24l0 228.8z"/>
  <path class="fil7" d="M301.54 78.81c7.88,0.59 14.15,7.22 14.15,15.24l0 198.31c0,8.03 -6.27,14.66 -14.15,15.25l0 -228.8z"/>
  <path class="fil5" d="M232.64 78.77l6.62 0 0 228.88 -6.62 0 0 -228.88z"/>
  <path class="fil7" d="M163.74 78.77l6.62 0 0 228.88 -6.62 0 0 -228.88z"/>
  <path class="fil8" d="M163.74 78.77l0 228.88 -61.14 0c-0.39,0 -0.76,-0.01 -1.14,-0.04l0 -228.8c0.38,-0.03 0.75,-0.04 1.14,-0.04l61.14 0z"/>
  <path class="fil8" d="M232.64 78.77l0 228.88 -62.28 0 0 -228.88 62.28 0z"/>
  <path class="fil8" d="M301.54 78.81l0 228.8c-0.38,0.03 -0.76,0.04 -1.14,0.04l-61.14 0 0 -228.88 61.14 0c0.38,0 0.76,0.01 1.14,0.04z"/>
  <rect class="fil9 str0" x="94.81" y="157.74" width="213.38" height="71.36" rx="8.59" ry="8.59"/>
  <path class="fil1" d="M157.86 339.16c-3.43,0 -6.54,1.38 -8.78,3.63 -2.25,2.25 -5.35,3.64 -8.79,3.64l-64.96 0c-4.05,0 -7.34,3.28 -7.34,7.33l0.01 72.5c0,4.05 3.28,7.34 7.33,7.34l69.03 0c2.26,0 4.31,-0.92 5.8,-2.4l18.16 -18.17c0.55,-0.55 1.31,-0.89 2.15,-0.89l62.06 0c0.84,0 1.6,0.34 2.15,0.89l18.16 18.17c1.48,1.48 3.54,2.4 5.8,2.4l69.03 0c4.05,0 7.33,-3.29 7.33,-7.34l0 -72.5c0,-4.05 -3.28,-7.33 -7.33,-7.33l-64.97 0c-3.43,0 -6.53,-1.39 -8.78,-3.64 -2.25,-2.25 -5.35,-3.63 -8.78,-3.63l-87.28 0zm35.81 9.64l15.66 0c3.81,0 6.93,3.12 6.93,6.94l0 0c0,3.81 -3.12,6.93 -6.93,6.93l-15.66 0c-3.82,0 -6.94,-3.12 -6.94,-6.93l0 0c0,-3.82 3.12,-6.94 6.94,-6.94zm0 2.41c2.52,0 4.56,2.03 4.56,4.53 0,2.5 -2.04,4.53 -4.56,4.53 -2.52,0 -4.57,-2.03 -4.57,-4.53 0,-2.5 2.05,-4.53 4.57,-4.53zm-24.05 55.25c-2.26,0 -4.31,0.91 -5.75,2.35l-16.91 16.91c-1.46,1.46 -3.51,2.38 -5.77,2.38l-63.72 0c-1.91,-0.01 -3.45,-1.55 -3.45,-3.46l0 -69.14c0,-1.91 1.54,-3.46 3.45,-3.46l88.5 0c3.81,0 7.27,1.55 9.77,4.05l6.33 6.33c1.45,1.46 3.47,2.36 5.69,2.36l27.48 0c2.22,0 4.23,-0.9 5.69,-2.36l6.33 -6.33c2.5,-2.5 5.95,-4.05 9.77,-4.05l88.49 0c1.91,0 3.46,1.55 3.46,3.46l0 69.14c0,1.91 -1.55,3.45 -3.46,3.46l-63.71 0c-2.27,0 -4.32,-0.92 -5.77,-2.38l-16.92 -16.91c-1.43,-1.44 -3.48,-2.35 -5.74,-2.35l-63.76 0z"/>
  <path class="fil10" d="M186.95 370.85l29.1 0c1.11,0 2.01,0.91 2.01,2.02l0 25.82c0,1.11 -0.9,2.01 -2.01,2.01l-29.1 0c-1.11,0 -2.02,-0.9 -2.02,-2.01l0 -25.82c0,-1.11 0.91,-2.02 2.02,-2.02zm1.61 1.89l25.87 0c0.97,0 1.76,0.79 1.76,1.76l0 22.56c0,0.97 -0.79,1.76 -1.76,1.76l-25.87 0c-0.97,0 -1.76,-0.79 -1.76,-1.76l0 -22.56c0,-0.97 0.79,-1.76 1.76,-1.76z"/>
  <ellipse class="fil6" cx="193.67" cy="355.74" rx="4.56" ry="4.53"/>
  <rect class="fil3" x="186.8" y="372.74" width="29.39" height="26.08" rx="1.99" ry="1.16"/>
  <path class="fil11" d="M174.69 358.5c1.22,0.66 2.33,1.5 3.3,2.47l1.89 1.89c2.6,2.61 6.21,4.22 10.2,4.22 7.61,0 15.23,0 22.84,0 3.99,0 7.59,-1.61 10.2,-4.22l1.89 -1.89c0.97,-0.97 2.08,-1.81 3.3,-2.47l0 46.32 -53.62 0 0 -46.32zm12.26 12.35l29.1 0c1.11,0 2.01,0.91 2.01,2.02l0 25.82c0,1.11 -0.9,2.01 -2.01,2.01l-29.1 0c-1.11,0 -2.02,-0.9 -2.02,-2.01l0 -25.82c0,-1.11 0.91,-2.02 2.02,-2.02z"/>
  <path class="fil12" d="M174.69 404.82l-5.43 -1.88 0 -46.12c1.95,0.2 3.79,0.78 5.43,1.68l0 46.32z"/>
  <path class="fil12" d="M228.31 358.5l0 46.32 5.42 -1.88 0 -46.12c-1.95,0.2 -3.78,0.78 -5.42,1.68z"/>
  <path class="fil0" d="M169.62 406.46c-2.26,0 -4.31,0.91 -5.75,2.35l-16.91 16.91c-1.46,1.46 -3.51,2.38 -5.77,2.38l-63.72 0c-1.91,-0.01 -3.45,-1.55 -3.45,-3.46l0 -69.14c0,-1.91 1.54,-3.46 3.45,-3.46l88.5 0c3.81,0 7.27,1.55 9.77,4.05l6.33 6.33c1.45,1.46 3.47,2.36 5.69,2.36l27.48 0c2.22,0 4.23,-0.9 5.69,-2.36l6.33 -6.33c2.5,-2.5 5.95,-4.05 9.77,-4.05l88.49 0c1.91,0 3.46,1.55 3.46,3.46l0 69.14c0,1.91 -1.55,3.45 -3.46,3.46l-63.71 0c-2.27,0 -4.32,-0.92 -5.77,-2.38l-16.92 -16.91c-1.43,-1.44 -3.48,-2.35 -5.74,-2.35l-63.76 0zm64.11 -3.52l-5.42 1.88 -53.62 0 -5.43 -1.88 -0.61 0c-2.22,0 -4.23,0.9 -5.68,2.36l-18.3 18.29c-0.65,0.65 -1.54,1.05 -2.53,1.05l-61.27 0c-1.88,0 -3.4,-1.52 -3.4,-3.4l0 -62.34c0,-1.88 1.52,-3.4 3.4,-3.4l83.94 0c1.64,0 3.17,0.49 4.45,1.32 1.95,0.2 3.79,0.78 5.43,1.68 1.22,0.66 2.33,1.5 3.3,2.47l1.89 1.89c2.6,2.61 6.21,4.22 10.2,4.22 7.61,0 15.23,0 22.84,0 3.99,0 7.59,-1.61 10.2,-4.22l1.89 -1.89c0.97,-0.97 2.08,-1.81 3.3,-2.47 1.64,-0.9 3.47,-1.48 5.42,-1.68 1.29,-0.83 2.82,-1.32 4.46,-1.32l83.94 0c1.87,0 3.4,1.52 3.4,3.4l0 62.34c0,1.88 -1.53,3.4 -3.4,3.4l-61.27 0c-0.99,0 -1.89,-0.4 -2.54,-1.05l-18.29 -18.29c-1.46,-1.46 -3.47,-2.36 -5.69,-2.36l-0.61 0z"/>
  <path class="fil5" d="M233.73 356.82c1.29,-0.83 2.82,-1.32 4.46,-1.32l83.94 0c1.87,0 3.4,1.52 3.4,3.4l0 62.34c0,1.88 -1.53,3.4 -3.4,3.4l-61.27 0c-0.99,0 -1.89,-0.4 -2.54,-1.05l-18.29 -18.29c-1.46,-1.46 -3.47,-2.36 -5.69,-2.36l-0.61 0 0 -46.12zm25.88 62.68l-20.84 -20.85c-0.82,-0.81 -1.32,-1.93 -1.32,-3.16l0 -33.52c0,-1.47 1.21,-2.68 2.69,-2.68l79.21 0c1.48,0 2.69,1.21 2.69,2.68l0 56.15c0,1.48 -1.21,2.69 -2.69,2.69l-56.58 0c-1.24,0 -2.35,-0.5 -3.16,-1.31z"/>
  <path class="fil5" d="M169.26 402.94l-0.61 0c-2.22,0 -4.23,0.9 -5.68,2.36l-18.3 18.29c-0.65,0.65 -1.54,1.05 -2.53,1.05l-61.27 0c-1.88,0 -3.4,-1.52 -3.4,-3.4l0 -62.34c0,-1.88 1.52,-3.4 3.4,-3.4l83.94 0c1.64,0 3.17,0.49 4.45,1.32l0 46.12zm-25.87 16.56l20.84 -20.85c0.81,-0.81 1.31,-1.93 1.31,-3.16l0 -33.52c0,-1.47 -1.2,-2.68 -2.68,-2.68l-79.22 0c-1.47,0 -2.68,1.21 -2.68,2.68l0 56.15c0,1.48 1.21,2.69 2.68,2.69l56.59 0c1.23,0 2.35,-0.5 3.16,-1.31z"/>
  <path class="fil6" d="M141.7 412.43l15.89 -15.89c1.39,-1.42 2.25,-3.37 2.25,-5.51l0 -17.19c0,-4.33 -3.54,-7.87 -7.88,-7.87l-56.56 0c-4.33,0 -7.87,3.54 -7.87,7.87l0 33.02c0,4.33 3.54,7.88 7.87,7.88l40.73 0c2.18,0 4.14,-0.88 5.57,-2.31z"/>
  <path class="fil6" d="M261.3 412.43l-15.89 -15.89c-1.39,-1.42 -2.25,-3.37 -2.25,-5.51l0 -17.19c0,-4.33 3.54,-7.87 7.87,-7.87l56.57 0c4.33,0 7.87,3.54 7.87,7.87l0 33.02c0,4.33 -3.54,7.88 -7.87,7.88l-40.73 0c-2.18,0 -4.15,-0.88 -5.57,-2.31z"/>
  <path class="fil3" d="M143.39 419.5l20.84 -20.85c0.81,-0.81 1.31,-1.93 1.31,-3.16l0 -33.52c0,-1.47 -1.2,-2.68 -2.68,-2.68l-79.22 0c-1.47,0 -2.68,1.21 -2.68,2.68l0 56.15c0,1.48 1.21,2.69 2.68,2.69l56.59 0c1.23,0 2.35,-0.5 3.16,-1.31zm-1.69 -7.07l15.89 -15.89c1.39,-1.42 2.25,-3.37 2.25,-5.51l0 -17.19c0,-4.33 -3.54,-7.87 -7.88,-7.87l-56.56 0c-4.33,0 -7.87,3.54 -7.87,7.87l0 33.02c0,4.33 3.54,7.88 7.87,7.88l40.73 0c2.18,0 4.14,-0.88 5.57,-2.31z"/>
  <path class="fil3" d="M259.61 419.5l-20.84 -20.85c-0.82,-0.81 -1.32,-1.93 -1.32,-3.16l0 -33.52c0,-1.47 1.21,-2.68 2.69,-2.68l79.21 0c1.48,0 2.69,1.21 2.69,2.68l0 56.15c0,1.48 -1.21,2.69 -2.69,2.69l-56.58 0c-1.24,0 -2.35,-0.5 -3.16,-1.31zm1.69 -7.07l-15.89 -15.89c-1.39,-1.42 -2.25,-3.37 -2.25,-5.51l0 -17.19c0,-4.33 3.54,-7.87 7.87,-7.87l56.57 0c4.33,0 7.87,3.54 7.87,7.87l0 33.02c0,4.33 -3.54,7.88 -7.87,7.88l-40.73 0c-2.18,0 -4.15,-0.88 -5.57,-2.31z"/>
  <path class="fil3" d="M193.67 348.8l15.66 0c3.81,0 6.93,3.12 6.93,6.94l0 0c0,3.81 -3.12,6.93 -6.93,6.93l-15.66 0c-3.82,0 -6.94,-3.12 -6.94,-6.93l0 0c0,-3.82 3.12,-6.94 6.94,-6.94zm0 2.41c2.52,0 4.56,2.03 4.56,4.53 0,2.5 -2.04,4.53 -4.56,4.53 -2.52,0 -4.57,-2.03 -4.57,-4.53 0,-2.5 2.05,-4.53 4.57,-4.53z"/>
  <circle class="fil6" cx="70.07" cy="61.78" r="5.73"/>
  <path class="fil5" d="M201.5 425.86c1.98,0 3.58,1.61 3.58,3.58 0,1.61 -1.05,2.96 -2.51,3.42l0 38.81 -2.14 0.02 0 -38.83c-1.46,-0.46 -2.51,-1.81 -2.51,-3.42 0,-1.97 1.6,-3.58 3.58,-3.58z"/>
  <path class="fil5" d="M126.21 387.82c1.4,1.4 1.4,3.67 0,5.07 -1.13,1.13 -2.83,1.34 -4.18,0.64l-78.14 78.14 -3.04 0 -10.44 0 0 -2.15 12.59 0 77.51 -77.51c-0.71,-1.35 -0.49,-3.05 0.64,-4.19 1.4,-1.39 3.67,-1.39 5.06,0z"/>
  <path class="fil5" d="M201.5 389.35c1.97,0 3.57,-1.6 3.57,-3.57 0,-1.97 -1.6,-3.57 -3.57,-3.57 -0.6,0 -1.16,0.14 -1.65,0.4l-48.12 -48.12 -121.32 0 0 2.15 120.43 0 47.49 47.49c-0.26,0.49 -0.4,1.05 -0.4,1.65 0,1.97 1.6,3.57 3.57,3.57z"/>
  <path class="fil5" d="M209.33 359.31c-1.97,0 -3.57,-1.6 -3.57,-3.57 0,-1.97 1.6,-3.57 3.57,-3.57 0.59,0 1.16,0.14 1.65,0.4l24.46 -24.46 144.97 0 0 2.15 -144.08 0 -23.83 23.83c0.26,0.49 0.4,1.05 0.4,1.65 0,1.97 -1.6,3.57 -3.57,3.57z"/>
  <path class="fil5" d="M276.78 387.82c-1.39,1.4 -1.39,3.67 0,5.07 1.14,1.13 2.84,1.34 4.19,0.64l78.14 78.14 3.04 0 10.43 0 0 -2.15 -12.58 0 -77.51 -77.51c0.7,-1.35 0.49,-3.05 -0.65,-4.19 -1.39,-1.39 -3.66,-1.39 -5.06,0z"/>
  <path class="fil5" d="M70.07 65.36c1.98,0 3.58,-1.6 3.58,-3.58 0,-1.6 -1.05,-2.96 -2.5,-3.41l0 -36.25 -2.15 0 0 36.25c-1.45,0.45 -2.51,1.81 -2.51,3.41 0,1.98 1.61,3.58 3.58,3.58z"/>
  <path class="fil5" d="M201.5 196.79c1.98,0 3.58,-1.61 3.58,-3.58 0,-1.6 -1.05,-2.96 -2.51,-3.42l0 -167.67 -2.14 0 0 167.67c-1.46,0.46 -2.51,1.82 -2.51,3.42 0,1.97 1.6,3.58 3.58,3.58z"/>
 </g>
</svg>
